<svg width="35" height="43" viewBox="0 0 35 43" fill="none" xmlns="http://www.w3.org/2000/svg">
<path d="M16.9419 20.4144C19.6708 20.4144 22.0336 19.4176 23.9646 17.4507C25.8951 15.4842 26.8741 13.0781 26.8741 10.2983C26.8741 7.51952 25.8954 5.11306 23.9643 3.14592C22.0332 1.17973 19.6705 0.182861 16.9419 0.182861C14.2126 0.182861 11.8502 1.17973 9.91948 3.14624C7.98871 5.11274 7.00964 7.5192 7.00964 10.2983C7.00964 13.0781 7.98871 15.4845 9.91948 17.4511C11.8509 19.4172 14.2136 20.4144 16.9419 20.4144ZM11.6284 4.88651C13.1099 3.37759 14.8478 2.64412 16.9419 2.64412C19.0356 2.64412 20.7739 3.37759 22.2557 4.88651C23.7372 6.39576 24.4576 8.16616 24.4576 10.2983C24.4576 12.4311 23.7372 14.2012 22.2557 15.7105C20.7739 17.2197 19.0356 17.9532 16.9419 17.9532C14.8485 17.9532 13.1106 17.2194 11.6284 15.7105C10.1466 14.2015 9.42617 12.4311 9.42617 10.2983C9.42617 8.16616 10.1466 6.39576 11.6284 4.88651Z" fill="#4F89AA"/>
<path d="M34.1347 31.3993C34.0793 30.4899 33.9673 29.4978 33.8024 28.4502C33.636 27.3948 33.4216 26.3971 33.165 25.4852C32.8997 24.5426 32.5395 23.6118 32.0936 22.7198C31.6315 21.794 31.0883 20.9879 30.4787 20.3245C29.8413 19.6305 29.0609 19.0725 28.1585 18.6655C27.2592 18.2606 26.2626 18.0555 25.1965 18.0555C24.7779 18.0555 24.373 18.251 23.591 18.8304C23.1098 19.1875 22.5468 19.6006 21.9185 20.0574C21.3813 20.447 20.6534 20.812 19.7545 21.1424C18.8774 21.4654 17.9868 21.6292 17.1076 21.6292C16.2289 21.6292 15.3384 21.4654 14.4607 21.1424C13.5626 20.8123 12.8345 20.4473 12.2982 20.0578C11.6758 19.6052 11.1126 19.1921 10.6241 18.83C9.84281 18.2507 9.43791 18.0552 9.01924 18.0552C7.95285 18.0552 6.95655 18.2606 6.05757 18.6659C5.15577 19.0721 4.37507 19.6301 3.73705 20.3248C3.12751 20.9886 2.5843 21.7944 2.12245 22.7198C1.67718 23.6118 1.31671 24.5423 1.05137 25.4855C0.795097 26.3974 0.580756 27.3948 0.414289 28.4502C0.249074 29.4964 0.137366 30.4888 0.0819817 31.4004C0.0275358 32.2916 0 33.2192 0 34.1564C0 36.5927 0.680573 38.5651 2.02263 40.0197C3.34811 41.455 5.10164 42.1828 7.23473 42.1828H26.9829C29.1154 42.1828 30.8689 41.455 32.1947 40.0197C33.5371 38.5661 34.2176 36.5931 34.2176 34.1561C34.2173 33.2157 34.1895 32.2881 34.1347 31.3993ZM30.5375 38.0381C29.6617 38.9867 28.499 39.4478 26.9826 39.4478H7.23473C5.71807 39.4478 4.5553 38.9867 3.67979 38.0384C2.82086 37.108 2.40344 35.8378 2.40344 34.1564C2.40344 33.2819 2.42879 32.4184 2.47948 31.5894C2.52892 30.7762 2.62998 29.8827 2.77987 28.9334C2.92787 27.9959 3.11624 27.116 3.34028 26.3195C3.55525 25.5557 3.84845 24.7993 4.21204 24.0708C4.55906 23.3764 4.95833 22.7807 5.3989 22.3007C5.811 21.8517 6.33042 21.4842 6.94247 21.2086C7.50852 20.9537 8.14466 20.8141 8.83525 20.7931C8.91942 20.844 9.0693 20.9412 9.31212 21.1214C9.8062 21.4878 10.3757 21.9058 11.0053 22.3634C11.7149 22.8783 12.6292 23.3433 13.7216 23.7446C14.8384 24.1555 15.9774 24.3642 17.1079 24.3642C18.2384 24.3642 19.3777 24.1555 20.4939 23.745C21.5872 23.343 22.5012 22.8783 23.2118 22.3627C23.856 21.8941 24.4096 21.4881 24.9037 21.1214C25.1465 20.9416 25.2964 20.844 25.3805 20.7931C26.0714 20.8141 26.7076 20.9537 27.2739 21.2086C27.8857 21.4842 28.4051 21.8521 28.8172 22.3007C29.2578 22.7804 29.657 23.3761 30.004 24.0712C30.368 24.7993 30.6615 25.556 30.8761 26.3191C31.1005 27.1167 31.2892 27.9962 31.4368 28.9331C31.5864 29.8842 31.6878 30.7779 31.7372 31.5898V31.5905C31.7882 32.4163 31.8139 33.2794 31.8142 34.1564C31.8139 35.8382 31.3965 37.108 30.5375 38.0381Z" fill="#4F89AA"/>
</svg>
