<svg width="26" height="30" viewBox="0 0 26 30" fill="none" xmlns="http://www.w3.org/2000/svg">
<path d="M2.80554 8.93117V26.2411C2.80554 27.2642 3.18071 28.2251 3.83608 28.9145C4.48843 29.6058 5.39629 29.9982 6.34641 29.9999H19.6393C20.5897 29.9982 21.4976 29.6058 22.1497 28.9145C22.805 28.2251 23.1802 27.2642 23.1802 26.2411V8.93117C24.483 8.58537 25.3272 7.32677 25.1529 5.98996C24.9783 4.65342 23.8397 3.65363 22.4916 3.65335H18.8945V2.77514C18.8986 2.03661 18.6066 1.32745 18.0838 0.805735C17.561 0.284293 16.8507 -0.0060675 16.1122 -2.97579e-05H9.87355C9.13502 -0.0060675 8.42476 0.284293 7.90195 0.805735C7.37914 1.32745 7.08713 2.03661 7.09125 2.77514V3.65335H3.49412C2.14606 3.65363 1.00739 4.65342 0.832848 5.98996C0.658577 7.32677 1.50276 8.58537 2.80554 8.93117ZM19.6393 28.5947H6.34641C5.14517 28.5947 4.21069 27.5628 4.21069 26.2411V8.99292H21.775V26.2411C21.775 27.5628 20.8406 28.5947 19.6393 28.5947ZM8.49639 2.77514C8.49173 2.4093 8.63554 2.05719 8.89516 1.79894C9.15451 1.54069 9.50744 1.39881 9.87355 1.40512H16.1122C16.4783 1.39881 16.8312 1.54069 17.0906 1.79894C17.3502 2.05692 17.494 2.4093 17.4893 2.77514V3.65335H8.49639V2.77514ZM3.49412 5.0585H22.4916C23.1901 5.0585 23.7562 5.62468 23.7562 6.32313C23.7562 7.02159 23.1901 7.58777 22.4916 7.58777H3.49412C2.79566 7.58777 2.22949 7.02159 2.22949 6.32313C2.22949 5.62468 2.79566 5.0585 3.49412 5.0585Z" fill="#4F89AA"/>
</svg>
