<svg width="30" height="30" viewBox="0 0 30 30" fill="none" xmlns="http://www.w3.org/2000/svg">
<path d="M29.7423 5.22964L24.7704 0.257919C24.4272 -0.085322 23.8707 -0.085322 23.5274 0.257919L3.99855 19.7868C3.99785 19.7875 3.99721 19.7882 3.9965 19.7889C3.99158 19.7947 3.87398 19.9012 3.79969 20.0746L3.79389 20.0881C3.79348 20.089 3.79307 20.09 3.79266 20.091C3.26865 21.3137 0.600532 27.5393 0.0707864 28.7753C-0.0707759 29.1057 0.00299354 29.4889 0.257173 29.743C0.512172 29.998 0.895668 30.0705 1.22485 29.9294C3.31664 29.0329 7.84769 27.091 9.92559 26.2005L9.92542 26.2001C10.0254 26.1573 10.1192 26.0957 10.2008 26.0141C10.9169 25.298 27.9292 8.28571 29.7423 6.47265C29.9071 6.30783 29.9997 6.08429 29.9997 5.85115C29.9997 5.618 29.9071 5.39447 29.7423 5.22964ZM2.55193 27.4481L3.3641 25.5531C3.59115 25.6747 3.80098 25.829 3.98596 26.014C4.17099 26.1991 4.32539 26.4089 4.44691 26.6359L2.55193 27.4481ZM8.67151 24.8255L6.06656 25.9418C5.85498 25.5111 5.5732 25.1155 5.2289 24.7711C4.88455 24.4268 4.48892 24.1451 4.0582 23.9335L5.17464 21.3285H6.21058V22.9106C6.21058 23.3959 6.6041 23.7895 7.08949 23.7895H8.67151V24.8255ZM10.4293 23.2997V22.9106C10.4293 22.4252 10.0358 22.0317 9.55042 22.0317H7.96839V20.4497C7.96839 19.9643 7.57488 19.5708 7.08949 19.5708H6.70042L19.177 7.09421L22.9058 10.8231L10.4293 23.2997ZM24.1489 9.58016L20.42 5.85126L21.6629 4.60832L25.3918 8.33722L24.1489 9.58016ZM26.6348 7.09421L22.9059 3.36531L24.1489 2.12237L27.8778 5.85126L26.6348 7.09421Z" fill="#4F89AA"/>
</svg>
