<svg width="126" height="95" viewBox="0 0 126 95" fill="none" xmlns="http://www.w3.org/2000/svg">
<g filter="url(#filter0_d)">
<path d="M46.6152 27.0102C48.9171 27.9021 50.6294 29.8032 51.4363 32.3654C52.2006 34.7984 51.6753 37.5233 49.9927 39.8436C49.1429 41.0163 47.6124 42.577 44.9747 43.8635C45.6686 43.8702 46.3591 43.9563 47.0331 44.1201C50.59 44.984 52.5972 47.7413 53.2347 49.8399C54.04 52.4957 53.7314 55.2036 52.364 57.4629C50.4573 60.6198 46.6327 62.7332 41.0039 63.7498C37.9704 64.2993 36.8472 65.3147 36.7819 65.6217C36.827 65.7514 36.9005 65.8689 36.9969 65.9656C37.0933 66.0622 37.2101 66.1355 37.3386 66.18C38.1581 66.479 38.9538 66.5673 39.8751 66.6668C43.7638 67.0933 48.6097 68.9157 49.6304 75.1791C49.9022 76.8569 50.0451 78.1229 50.2259 79.7266L50.4011 81.2374C50.731 83.9747 50.9909 86.135 49.5242 86.6787C47.9323 87.2687 46.7028 85.1161 45.1367 82.0111C44.5504 80.8443 43.4092 78.2329 43.1991 77.6447C42.0967 74.5594 41.1809 74.4598 39.1749 74.2415C37.872 74.0993 36.4275 73.9427 34.7616 73.336C31.2822 72.0657 28.9858 68.5504 29.3023 64.9783C29.4867 63.104 30.314 61.351 31.6405 60.0243C28.5823 61.1541 25.3741 61.3591 22.3306 60.5356C18.3021 59.4446 15.2897 56.7138 14.4697 53.4085C13.6667 50.1769 14.3141 46.9844 16.2965 44.4208C19.0801 40.8217 24.0592 38.8887 31.1174 38.667C31.6038 38.6523 32.1002 38.645 32.6067 38.6452C41.1287 38.6603 43.5466 35.9186 43.946 35.3668C44.2731 34.9163 44.2679 34.6597 44.2689 34.6574C44.1733 34.3691 44.0442 34.1677 43.8968 34.1107C43.8366 34.0865 42.3117 33.5448 38.0957 36.0209C35.5674 37.5106 33.2311 38.2798 31.1145 38.3239C30.0772 38.3517 29.0447 38.1857 28.0688 37.8342C26.4314 37.2355 24.2263 35.8055 23.0048 32.3867L21.8308 29.101C19.8379 28.3215 16.9684 27.0726 15.3565 22.5613C15.0504 21.6935 14.8344 20.7953 14.7119 19.8812L14.7206 19.8539C14.9521 19.9277 15.1979 19.9445 15.4377 19.9029C15.6775 19.8613 15.9043 19.7625 16.0994 19.6146C16.2944 19.4668 16.4521 19.2742 16.5593 19.0528C16.6664 18.8314 16.7201 18.5876 16.7157 18.3416C16.7113 18.0956 16.649 17.8545 16.534 17.6383C16.419 17.4222 16.2546 17.2371 16.0544 17.0986C15.8543 16.96 15.6241 16.872 15.383 16.8417C15.142 16.8114 14.8969 16.8398 14.6683 16.9245C14.6357 16.9365 14.6054 16.9496 14.5751 16.9627L14.574 16.9594C14.7053 13.5545 15.7767 10.4821 16.744 9.16921C17.1371 8.63616 17.6751 8.23036 18.2917 8.00183C18.9082 7.77329 19.5765 7.73199 20.214 7.88302C21.7917 8.2582 24.5758 9.9276 26.8323 12.4754C26.6948 12.4865 26.5593 12.5167 26.4297 12.565C26.1872 12.6547 25.9708 12.8049 25.8004 13.0016C25.6301 13.1982 25.5114 13.435 25.4554 13.69C25.3994 13.9449 25.4079 14.2097 25.48 14.4598C25.5522 14.7098 25.6858 14.937 25.8683 15.1202C26.0508 15.3035 26.2764 15.4368 26.524 15.5078C26.7716 15.5789 27.0333 15.5853 27.2847 15.5265C27.5361 15.4678 27.7691 15.3457 27.962 15.1717C28.1549 14.9977 28.3015 14.7774 28.3881 14.5312C28.9336 15.3781 29.383 16.2849 29.7278 17.2346C31.3391 21.7442 29.9305 24.5788 28.8945 26.4828L30.0685 29.7685C30.3362 30.5176 30.5807 30.6558 30.6492 30.6825C30.6597 30.6861 31.6727 31.0269 34.3466 29.4553C35.6887 28.6506 37.0975 27.9666 38.5567 27.4111C41.6463 26.266 44.3454 26.1306 46.6152 27.0102ZM46.0226 52.3159C46.0204 52.3148 45.8342 51.6546 45.2433 51.5108C44.8731 51.4229 42.8341 51.174 39.0242 55.1015C38.3995 55.7468 37.7369 56.3534 37.04 56.9178C37.9193 56.6438 38.8146 56.4263 39.7205 56.2666C44.3625 55.426 45.6338 54.0674 45.9628 53.5194C46.1951 53.1338 46.195 52.8808 46.0226 52.3159ZM38.5601 45.8039C36.5723 46.1129 34.5641 46.2607 32.5547 46.2457C28.9454 46.2403 26.5467 46.7163 24.9596 47.3046C23.3108 47.9157 22.5405 48.6459 22.2033 49.0834C21.6721 49.7715 21.2606 50.4598 21.7524 51.5166C21.8707 51.7704 22.5891 52.7245 24.308 53.1907C25.7532 53.5815 29.561 54.0343 33.6776 49.7903C35.4126 48.0031 37.0454 46.7132 38.5601 45.8039Z" fill="#AECDDE"/>
<path d="M26.8354 12.4811C27.2223 12.4465 27.6058 12.561 27.9082 12.8017C28.2105 13.0423 28.4093 13.3911 28.4641 13.7774C28.519 14.1637 28.426 14.5587 28.2038 14.8825C27.9816 15.2063 27.6469 15.4347 27.2673 15.5216C26.8878 15.6084 26.4918 15.5471 26.1594 15.3502C25.8271 15.1532 25.5832 14.8353 25.4771 14.4607C25.371 14.0861 25.4106 13.6828 25.5879 13.3325C25.7653 12.9821 26.067 12.7107 26.4323 12.5734C26.5621 12.5243 26.6977 12.4932 26.8354 12.4811Z" fill="#00EFD1"/>
<path d="M14.6709 16.9329C15.0492 16.79 15.4659 16.8019 15.8311 16.966C16.1964 17.1301 16.481 17.4332 16.6235 17.8101C16.766 18.1869 16.755 18.6073 16.5929 18.9805C16.4309 19.3537 16.1307 19.6498 15.7571 19.8051C15.3835 19.9603 14.9664 19.9622 14.5958 19.8103C14.2252 19.6585 13.9308 19.365 13.7761 18.9933C13.6213 18.6215 13.6186 18.2012 13.7686 17.823C13.9185 17.4449 14.2091 17.1391 14.5776 16.9717C14.608 16.9584 14.6383 16.9451 14.6709 16.9329Z" fill="#00EFD1"/>
</g>
<path d="M42.6426 50.4524C42.6426 49.899 42.4473 49.4758 42.0566 49.1829C41.666 48.8834 40.9629 48.5709 39.9473 48.2454C38.9316 47.9133 38.1276 47.5878 37.5352 47.2688C35.9206 46.3964 35.1133 45.2213 35.1133 43.7434C35.1133 42.9752 35.3281 42.2916 35.7578 41.6926C36.194 41.0872 36.8158 40.6152 37.623 40.2766C38.4368 39.9381 39.3483 39.7688 40.3574 39.7688C41.373 39.7688 42.278 39.9543 43.0723 40.3254C43.8665 40.69 44.4818 41.2076 44.918 41.8782C45.3607 42.5487 45.582 43.3105 45.582 44.1633H42.6523C42.6523 43.5123 42.4473 43.0077 42.0371 42.6497C41.627 42.2851 41.0508 42.1028 40.3086 42.1028C39.5924 42.1028 39.0358 42.2558 38.6387 42.5618C38.2415 42.8612 38.043 43.2584 38.043 43.7532C38.043 44.2154 38.2741 44.6028 38.7363 44.9153C39.2051 45.2278 39.8919 45.5208 40.7969 45.7942C42.4635 46.2955 43.6777 46.9172 44.4395 47.6594C45.2012 48.4016 45.582 49.3261 45.582 50.4329C45.582 51.6633 45.1165 52.6301 44.1855 53.3333C43.2546 54.0299 42.0013 54.3782 40.4258 54.3782C39.332 54.3782 38.3359 54.1796 37.4375 53.7825C36.5391 53.3788 35.8522 52.8287 35.377 52.1321C34.9082 51.4355 34.6738 50.6282 34.6738 49.7102H37.6133C37.6133 51.2792 38.5508 52.0637 40.4258 52.0637C41.1224 52.0637 41.666 51.9237 42.0566 51.6438C42.4473 51.3573 42.6426 50.9602 42.6426 50.4524ZM50.3672 54.1829H47.5352V43.6165H50.3672V54.1829ZM47.3691 40.8821C47.3691 40.4589 47.5091 40.1106 47.7891 39.8372C48.0755 39.5637 48.4629 39.427 48.9512 39.427C49.4329 39.427 49.8171 39.5637 50.1035 39.8372C50.39 40.1106 50.5332 40.4589 50.5332 40.8821C50.5332 41.3118 50.3867 41.6633 50.0938 41.9368C49.8073 42.2102 49.4264 42.3469 48.9512 42.3469C48.4759 42.3469 48.0918 42.2102 47.7988 41.9368C47.5124 41.6633 47.3691 41.3118 47.3691 40.8821ZM55.8164 49.1731V54.1829H52.8867V39.9641H58.4336C59.5013 39.9641 60.4388 40.1594 61.2461 40.55C62.0599 40.9407 62.6849 41.4973 63.1211 42.22C63.5573 42.9361 63.7754 43.7532 63.7754 44.6711C63.7754 46.0644 63.2969 47.1646 62.3398 47.9719C61.3893 48.7727 60.071 49.1731 58.3848 49.1731H55.8164ZM55.8164 46.8H58.4336C59.2083 46.8 59.7975 46.6178 60.2012 46.2532C60.6113 45.8886 60.8164 45.3678 60.8164 44.6907C60.8164 43.9941 60.6113 43.4309 60.2012 43.0012C59.791 42.5715 59.2246 42.3502 58.502 42.3372H55.8164V46.8ZM68.5898 54.1829H65.7578V39.1829H68.5898V54.1829ZM77.252 53.1086C76.5553 53.955 75.5918 54.3782 74.3613 54.3782C73.2285 54.3782 72.3626 54.0527 71.7637 53.4016C71.1712 52.7506 70.8685 51.7968 70.8555 50.5403V43.6165H73.6777V50.4426C73.6777 51.5429 74.179 52.093 75.1816 52.093C76.1387 52.093 76.7962 51.761 77.1543 51.0969V43.6165H79.9863V54.1829H77.3301L77.252 53.1086ZM87.8379 51.2629C87.8379 50.9179 87.6654 50.6477 87.3203 50.4524C86.9818 50.2506 86.4349 50.0715 85.6797 49.9153C83.1667 49.3879 81.9102 48.3202 81.9102 46.7122C81.9102 45.7747 82.2975 44.9934 83.0723 44.3684C83.8535 43.7369 84.8724 43.4211 86.1289 43.4211C87.4701 43.4211 88.541 43.7369 89.3418 44.3684C90.1491 44.9999 90.5527 45.8202 90.5527 46.8293H87.7305C87.7305 46.4257 87.6003 46.0937 87.3398 45.8333C87.0794 45.5663 86.6725 45.4329 86.1191 45.4329C85.6439 45.4329 85.276 45.5403 85.0156 45.7551C84.7552 45.97 84.625 46.2434 84.625 46.5754C84.625 46.8879 84.7715 47.1418 85.0645 47.3372C85.3639 47.526 85.8652 47.692 86.5684 47.8352C87.2715 47.9719 87.8639 48.1282 88.3457 48.304C89.8366 48.8508 90.582 49.7981 90.582 51.1458C90.582 52.1093 90.1686 52.8905 89.3418 53.4895C88.515 54.0819 87.4473 54.3782 86.1387 54.3782C85.2533 54.3782 84.4655 54.2219 83.7754 53.9094C83.0918 53.5904 82.5547 53.1575 82.1641 52.6106C81.7734 52.0572 81.5781 51.4615 81.5781 50.8235H84.2539C84.2799 51.3248 84.4655 51.7089 84.8105 51.9758C85.1556 52.2428 85.6178 52.3762 86.1973 52.3762C86.7376 52.3762 87.1445 52.2753 87.418 52.0735C87.6979 51.8652 87.8379 51.595 87.8379 51.2629ZM92.5547 52.7961C92.5547 52.3469 92.7044 51.9823 93.0039 51.7024C93.3099 51.4224 93.6908 51.2825 94.1465 51.2825C94.6087 51.2825 94.9896 51.4224 95.2891 51.7024C95.5951 51.9823 95.748 52.3469 95.748 52.7961C95.748 53.2389 95.5983 53.6002 95.2988 53.8801C94.9993 54.1536 94.6152 54.2903 94.1465 54.2903C93.6842 54.2903 93.3034 54.1536 93.0039 53.8801C92.7044 53.6002 92.5547 53.2389 92.5547 52.7961ZM100.875 43.6165L100.963 44.7981C101.712 43.8801 102.724 43.4211 104 43.4211C105.361 43.4211 106.295 43.9583 106.803 45.0325C107.545 43.9583 108.603 43.4211 109.977 43.4211C111.122 43.4211 111.975 43.7564 112.535 44.427C113.095 45.0911 113.375 46.0937 113.375 47.4348V54.1829H110.543V47.4446C110.543 46.8456 110.426 46.4094 110.191 46.136C109.957 45.856 109.544 45.7161 108.951 45.7161C108.105 45.7161 107.519 46.1197 107.193 46.927L107.203 54.1829H104.381V47.4543C104.381 46.8424 104.26 46.3997 104.02 46.1262C103.779 45.8528 103.368 45.7161 102.789 45.7161C101.988 45.7161 101.409 46.0481 101.051 46.7122V54.1829H98.2285V43.6165H100.875ZM120.416 54.3782C118.867 54.3782 117.604 53.9029 116.627 52.9524C115.657 52.0019 115.172 50.7356 115.172 49.1536V48.8801C115.172 47.8189 115.377 46.8717 115.787 46.0383C116.197 45.1985 116.777 44.554 117.525 44.1047C118.281 43.649 119.14 43.4211 120.104 43.4211C121.549 43.4211 122.685 43.8769 123.512 44.7883C124.345 45.6998 124.762 46.9921 124.762 48.6653V49.8176H118.033C118.124 50.5077 118.398 51.0611 118.854 51.4778C119.316 51.8944 119.898 52.1028 120.602 52.1028C121.689 52.1028 122.538 51.7089 123.15 50.9211L124.537 52.4739C124.114 53.0728 123.541 53.5416 122.818 53.8801C122.096 54.2122 121.295 54.3782 120.416 54.3782ZM120.094 45.7063C119.534 45.7063 119.078 45.8951 118.727 46.2727C118.382 46.6503 118.16 47.1907 118.062 47.8938H121.988V47.6692C121.975 47.0442 121.806 46.5624 121.48 46.2239C121.155 45.8788 120.693 45.7063 120.094 45.7063Z" fill="#4F89AA"/>
<defs>
<filter id="filter0_d" x="9.65802" y="7.7937" width="48.016" height="86.9825" filterUnits="userSpaceOnUse" color-interpolation-filters="sRGB">
<feFlood flood-opacity="0" result="BackgroundImageFix"/>
<feColorMatrix in="SourceAlpha" type="matrix" values="0 0 0 0 0 0 0 0 0 0 0 0 0 0 0 0 0 0 127 0"/>
<feOffset dy="4"/>
<feGaussianBlur stdDeviation="2"/>
<feColorMatrix type="matrix" values="0 0 0 0 0.309804 0 0 0 0 0.537255 0 0 0 0 0.666667 0 0 0 0.25 0"/>
<feBlend mode="normal" in2="BackgroundImageFix" result="effect1_dropShadow"/>
<feBlend mode="normal" in="SourceGraphic" in2="effect1_dropShadow" result="shape"/>
</filter>
</defs>
</svg>
