<svg width="111" height="104" viewBox="0 0 111 104" fill="none" xmlns="http://www.w3.org/2000/svg">
<path d="M55.5 104C86.1518 104 111 80.7188 111 52C111 23.2812 86.1518 0 55.5 0C24.8482 0 0 23.2812 0 52C0 80.7188 24.8482 104 55.5 104Z" fill="#A1C6DB"/>
<path d="M68.2038 55.5754C74.3873 51.7185 78.4656 45.136 78.4656 37.6552C78.4656 25.7723 68.1828 16.1379 55.5001 16.1379C42.8174 16.1379 32.5345 25.7723 32.5345 37.6552C32.5345 45.136 36.6128 51.7185 42.7963 55.5754C42.7963 55.5754 42.7982 55.5772 42.8001 55.5772C42.7982 55.5772 42.7982 55.5754 42.7982 55.5754C27.9969 59.7551 16.4721 71.0105 12.7612 85.1706L12.7631 85.1724C13.3679 85.8556 13.9956 86.5226 14.6367 87.1771C14.7918 87.3367 14.9544 87.4891 15.1133 87.6451C15.607 88.1364 16.1065 88.6205 16.6194 89.0939C16.8319 89.2894 17.0481 89.4776 17.2644 89.6695C17.739 90.0927 18.2194 90.5105 18.7093 90.9175C18.9524 91.1183 19.1992 91.3174 19.4442 91.5146C19.9246 91.9001 20.4107 92.2785 20.9063 92.6478C21.1666 92.8433 21.4288 93.0351 21.691 93.227C22.1924 93.5892 22.7015 93.9407 23.2163 94.2849C23.4823 94.4625 23.7445 94.6436 24.0143 94.8175C24.5579 95.1689 25.1109 95.5061 25.6678 95.8396C25.9186 95.9884 26.1635 96.1426 26.4161 96.2896C27.0592 96.6608 27.7137 97.0158 28.374 97.3637C28.5481 97.4551 28.7184 97.5538 28.8945 97.6434C29.7481 98.0809 30.615 98.5005 31.4953 98.8968C31.5164 98.9058 31.5394 98.9147 31.5604 98.9237C32.4006 99.3003 33.2541 99.6571 34.1172 99.9942C34.3852 100.1 34.6588 100.193 34.9287 100.294C35.5526 100.527 36.1765 100.756 36.8119 100.968C37.1487 101.081 37.4894 101.183 37.8281 101.291C38.4061 101.473 38.9878 101.651 39.5735 101.814C39.9447 101.918 40.3179 102.015 40.693 102.112C41.2595 102.259 41.8298 102.399 42.4059 102.53C42.7944 102.617 43.1848 102.702 43.5771 102.782C44.1532 102.901 44.7311 103.008 45.3129 103.109C45.7072 103.177 46.0995 103.247 46.4976 103.306C47.0985 103.397 47.7033 103.475 48.3099 103.548C48.6927 103.595 49.0735 103.647 49.4582 103.684C50.128 103.753 50.8036 103.801 51.4792 103.846C51.8064 103.867 52.1299 103.9 52.4571 103.916C53.4657 103.969 54.4781 104 55.5001 104C56.522 104 57.5344 103.969 58.543 103.919C58.8702 103.903 59.1956 103.871 59.5209 103.849C60.1984 103.805 60.874 103.756 61.5419 103.688C61.9266 103.649 62.3074 103.598 62.6902 103.552C63.2968 103.478 63.9016 103.401 64.5025 103.31C64.8987 103.249 65.2929 103.181 65.6872 103.112C66.269 103.012 66.8488 102.904 67.423 102.786C67.8153 102.705 68.2057 102.621 68.5942 102.533C69.1684 102.402 69.7387 102.262 70.3071 102.115C70.6803 102.019 71.0554 101.922 71.4266 101.818C72.0142 101.653 72.5941 101.475 73.172 101.294C73.5108 101.187 73.8533 101.084 74.1882 100.971C74.8217 100.758 75.4475 100.53 76.0714 100.297C76.3413 100.197 76.6149 100.102 76.8829 99.9978C77.7422 99.6607 78.5919 99.3074 79.4282 98.9309C79.4531 98.9201 79.4799 98.9094 79.5048 98.8986C80.3851 98.5023 81.2521 98.0827 82.1056 97.6452C82.2817 97.5556 82.452 97.4569 82.6262 97.3655C83.2864 97.0176 83.9409 96.6626 84.584 96.2914C84.8366 96.1462 85.0835 95.992 85.3323 95.8414C85.8892 95.5078 86.4423 95.1689 86.9858 94.8193C87.2537 94.6454 87.5178 94.466 87.7838 94.2867C88.2986 93.9407 88.8077 93.5892 89.3091 93.2288C89.5732 93.0387 89.8335 92.8451 90.0938 92.6496C90.5875 92.2803 91.0756 91.9019 91.5559 91.5164C91.8028 91.3191 92.0497 91.1201 92.2908 90.9193C92.7807 90.5123 93.2611 90.0945 93.7357 89.6713C93.9501 89.4794 94.1682 89.2894 94.3807 89.0957C94.8936 88.6223 95.395 88.1382 95.8868 87.6469C96.0438 87.4891 96.2064 87.3367 96.3634 87.1789C97.0045 86.5244 97.6322 85.8574 98.237 85.1742L98.2389 85.1724C94.53 71.0105 83.0051 59.7551 68.2038 55.5754Z" fill="#4688AE"/>
</svg>